<?xml version="1.0" standalone="no"?>
<!DOCTYPE svg PUBLIC "-//W3C//DTD SVG 20010904//EN"
 "http://www.w3.org/TR/2001/REC-SVG-20010904/DTD/svg10.dtd">
<svg version="1.0" xmlns="http://www.w3.org/2000/svg"
 width="512.000000pt" height="512.000000pt" viewBox="0 0 512.000000 512.000000"
 preserveAspectRatio="xMidYMid meet">
<metadata>
Created by potrace 1.14, written by Peter Selinger 2001-2017
</metadata>
<g transform="translate(0.000000,512.000000) scale(0.100000,-0.100000)"
fill="#000000" stroke="none">
<path d="M2015 3961 c-51 -23 -92 -71 -101 -117 -9 -50 1 -113 24 -143 20 -28
34 -79 23 -86 -4 -2 -36 -6 -72 -9 -184 -16 -385 -74 -499 -144 -100 -62 -146
-118 -156 -192 -5 -35 -18 -55 -77 -116 -39 -41 -74 -74 -77 -74 -4 0 -35 55
-71 122 -127 242 -194 320 -334 390 -128 64 -279 60 -409 -10 -67 -36 -165
-134 -202 -202 -99 -180 -74 -387 60 -513 56 -52 89 -73 221 -142 72 -38 165
-91 208 -118 l78 -50 -27 -18 c-70 -46 -111 -166 -83 -243 44 -122 180 -179
299 -125 43 19 140 109 140 130 0 22 19 4 60 -58 118 -181 336 -334 587 -414
l72 -23 -42 -25 c-23 -14 -57 -38 -75 -55 -18 -16 -56 -43 -85 -59 -77 -44
-135 -94 -156 -135 -71 -141 89 -281 399 -351 118 -27 185 -34 335 -36 449 -6
810 137 807 320 -1 76 -51 136 -167 199 -27 16 -69 45 -93 67 -25 21 -49 39
-53 39 -5 0 -9 4 -9 9 0 6 125 33 155 32 17 0 208 55 295 86 162 57 390 177
558 295 53 37 308 230 417 317 177 139 463 333 585 395 214 110 310 153 449
203 132 47 143 60 96 107 -67 67 -210 117 -335 117 -87 0 -62 4 -305 -55 -174
-43 -286 -67 -374 -82 -18 -3 -42 -7 -51 -9 -10 -2 -40 -7 -67 -11 -26 -3 -57
-8 -68 -10 -90 -18 -431 -25 -530 -11 -157 22 -420 114 -435 151 -57 147 -332
275 -648 302 -36 3 -69 7 -73 9 -9 6 6 76 18 84 35 25 43 123 14 179 -24 47
-50 70 -98 88 -51 18 -81 17 -128 -5z m-1322 -639 c74 -40 164 -132 305 -314
11 -14 7 -29 -27 -100 -22 -46 -44 -102 -50 -126 -5 -24 -12 -46 -15 -49 -3
-3 -36 15 -73 39 -37 25 -113 69 -168 98 -260 137 -344 216 -345 322 0 47 13
80 42 108 77 73 220 82 331 22z m2238 -200 c-26 -49 -145 -128 -251 -167 -68
-25 -253 -72 -312 -79 -29 -4 -73 -9 -98 -13 -63 -9 -389 -10 -480 0 -109 11
-274 45 -360 74 -88 29 -210 92 -210 109 0 6 8 18 18 28 18 15 23 15 87 -9
110 -42 256 -76 387 -91 29 -3 69 -9 89 -14 40 -8 489 -6 529 3 14 3 43 8 65
12 157 23 332 73 450 129 50 24 91 42 93 40 2 -1 -1 -11 -7 -22z"/>
</g>
</svg>
